<svg xmlns="http://www.w3.org/2000/svg" xmlns:xlink="http://www.w3.org/1999/xlink" xml:space="preserve" version="1.1" style="shape-rendering:geometricPrecision;text-rendering:geometricPrecision;image-rendering:optimizeQuality;" viewBox="0 0 309 314" x="0px" y="0px" fill-rule="evenodd" clip-rule="evenodd" fill="#A04B26">
  <g>
    <path class="fil0" d="M0 118c0,-58 260,-59 260,0 0,5 0,11 -1,17 17,-9 33,-9 44,2 18,18 -7,59 -26,75 -16,14 -36,17 -50,8 -19,32 -44,56 -65,56l-67 0c-35,0 -95,-97 -95,-158zm130 -34c61,0 111,16 111,35 0,19 -50,34 -111,34 -61,0 -111,-15 -111,-34 0,-19 50,-35 111,-35zm125 70c-5,20 -14,40 -24,59 8,4 20,5 35,-7 22,-18 28,-43 19,-53 -5,-6 -18,-4 -30,1z"/><path class="fil0" d="M226 232c18,7 29,15 29,25 0,22 -57,40 -128,40 -70,0 -127,-18 -127,-40 0,-10 13,-20 34,-27 17,25 40,51 61,51l67 0c24,0 47,-24 64,-49z"/><path class="fil0" d="M195 296c-10,10 -36,18 -68,18 -31,0 -57,-8 -67,-18 19,4 43,7 67,7 25,0 49,-3 68,-7z"/><path class="fil0" d="M174 147c-14,2 -28,3 -44,3 -56,0 -102,-14 -102,-31 0,-16 38,-29 86,-32 -40,5 -69,16 -69,30 0,30 102,33 129,30z"/><path class="fil0" d="M155 10c85,40 -43,62 15,116 -104,-52 38,-71 -15,-116z"/><path class="fil0" d="M119 0c85,40 -44,62 15,116 -104,-52 38,-71 -15,-116z"/>
  </g>
</svg>
